<mxfile host="app.diagrams.net" agent="Mozilla/5.0 (Windows NT 10.0; Win64; x64) AppleWebKit/537.36 (KHTML, like Gecko) Chrome/127.0.0.0 Safari/537.36" version="24.7.7">
  <diagram name="PÃ¡gina-1" id="MBTgl3K44TJjX2GZp9Pu">
    <mxGraphModel dx="2876" dy="1941" grid="1" gridSize="10" guides="1" tooltips="1" connect="1" arrows="1" fold="1" page="1" pageScale="1" pageWidth="827" pageHeight="1169" math="0" shadow="0">
      <root>
        <mxCell id="0" />
        <mxCell id="1" parent="0" />
        <mxCell id="4XpJfRSCnI_7P8yuamLv-5" value="01 - Sistema de Loja Online" style="rounded=1;whiteSpace=wrap;html=1;" vertex="1" parent="1">
          <mxGeometry x="290" y="30" width="240" height="40" as="geometry" />
        </mxCell>
        <mxCell id="4XpJfRSCnI_7P8yuamLv-57" value="Cliente" style="swimlane;fontStyle=0;childLayout=stackLayout;horizontal=1;startSize=30;horizontalStack=0;resizeParent=1;resizeParentMax=0;resizeLast=0;collapsible=1;marginBottom=0;whiteSpace=wrap;html=1;" vertex="1" parent="1">
          <mxGeometry x="640" y="120" width="130" height="420" as="geometry">
            <mxRectangle x="340" y="190" width="80" height="30" as="alternateBounds" />
          </mxGeometry>
        </mxCell>
        <mxCell id="4XpJfRSCnI_7P8yuamLv-58" value="&lt;span style=&quot;white-space: pre;&quot;&gt;&#x9;&lt;/span&gt;atributes" style="text;strokeColor=none;fillColor=none;align=left;verticalAlign=middle;spacingLeft=4;spacingRight=4;overflow=hidden;points=[[0,0.5],[1,0.5]];portConstraint=eastwest;rotatable=0;whiteSpace=wrap;html=1;" vertex="1" parent="4XpJfRSCnI_7P8yuamLv-57">
          <mxGeometry y="30" width="130" height="30" as="geometry" />
        </mxCell>
        <mxCell id="4XpJfRSCnI_7P8yuamLv-59" value="id" style="text;strokeColor=none;fillColor=none;align=left;verticalAlign=middle;spacingLeft=4;spacingRight=4;overflow=hidden;points=[[0,0.5],[1,0.5]];portConstraint=eastwest;rotatable=0;whiteSpace=wrap;html=1;" vertex="1" parent="4XpJfRSCnI_7P8yuamLv-57">
          <mxGeometry y="60" width="130" height="30" as="geometry" />
        </mxCell>
        <mxCell id="4XpJfRSCnI_7P8yuamLv-146" style="edgeStyle=orthogonalEdgeStyle;rounded=0;orthogonalLoop=1;jettySize=auto;html=1;exitX=0;exitY=0.5;exitDx=0;exitDy=0;" edge="1" parent="4XpJfRSCnI_7P8yuamLv-57" source="4XpJfRSCnI_7P8yuamLv-60">
          <mxGeometry relative="1" as="geometry">
            <mxPoint x="-250" y="104.89473684210532" as="targetPoint" />
          </mxGeometry>
        </mxCell>
        <mxCell id="4XpJfRSCnI_7P8yuamLv-149" value="temUm" style="edgeLabel;html=1;align=center;verticalAlign=middle;resizable=0;points=[];" vertex="1" connectable="0" parent="4XpJfRSCnI_7P8yuamLv-146">
          <mxGeometry x="0.1909" y="-1" relative="1" as="geometry">
            <mxPoint as="offset" />
          </mxGeometry>
        </mxCell>
        <mxCell id="4XpJfRSCnI_7P8yuamLv-60" value="nome&lt;span style=&quot;white-space: pre;&quot;&gt;&#x9;&lt;/span&gt;" style="text;strokeColor=none;fillColor=none;align=left;verticalAlign=middle;spacingLeft=4;spacingRight=4;overflow=hidden;points=[[0,0.5],[1,0.5]];portConstraint=eastwest;rotatable=0;whiteSpace=wrap;html=1;" vertex="1" parent="4XpJfRSCnI_7P8yuamLv-57">
          <mxGeometry y="90" width="130" height="30" as="geometry" />
        </mxCell>
        <mxCell id="4XpJfRSCnI_7P8yuamLv-61" value="dataNasc" style="text;strokeColor=none;fillColor=none;align=left;verticalAlign=middle;spacingLeft=4;spacingRight=4;overflow=hidden;points=[[0,0.5],[1,0.5]];portConstraint=eastwest;rotatable=0;whiteSpace=wrap;html=1;" vertex="1" parent="4XpJfRSCnI_7P8yuamLv-57">
          <mxGeometry y="120" width="130" height="30" as="geometry" />
        </mxCell>
        <mxCell id="4XpJfRSCnI_7P8yuamLv-62" value="sobrenome" style="text;strokeColor=none;fillColor=none;align=left;verticalAlign=middle;spacingLeft=4;spacingRight=4;overflow=hidden;points=[[0,0.5],[1,0.5]];portConstraint=eastwest;rotatable=0;whiteSpace=wrap;html=1;" vertex="1" parent="4XpJfRSCnI_7P8yuamLv-57">
          <mxGeometry y="150" width="130" height="30" as="geometry" />
        </mxCell>
        <mxCell id="4XpJfRSCnI_7P8yuamLv-63" value="cpf" style="text;strokeColor=none;fillColor=none;align=left;verticalAlign=middle;spacingLeft=4;spacingRight=4;overflow=hidden;points=[[0,0.5],[1,0.5]];portConstraint=eastwest;rotatable=0;whiteSpace=wrap;html=1;" vertex="1" parent="4XpJfRSCnI_7P8yuamLv-57">
          <mxGeometry y="180" width="130" height="30" as="geometry" />
        </mxCell>
        <mxCell id="4XpJfRSCnI_7P8yuamLv-64" value="endereco" style="text;strokeColor=none;fillColor=none;align=left;verticalAlign=middle;spacingLeft=4;spacingRight=4;overflow=hidden;points=[[0,0.5],[1,0.5]];portConstraint=eastwest;rotatable=0;whiteSpace=wrap;html=1;" vertex="1" parent="4XpJfRSCnI_7P8yuamLv-57">
          <mxGeometry y="210" width="130" height="30" as="geometry" />
        </mxCell>
        <mxCell id="4XpJfRSCnI_7P8yuamLv-135" value="contato" style="text;strokeColor=none;fillColor=none;align=left;verticalAlign=middle;spacingLeft=4;spacingRight=4;overflow=hidden;points=[[0,0.5],[1,0.5]];portConstraint=eastwest;rotatable=0;whiteSpace=wrap;html=1;" vertex="1" parent="4XpJfRSCnI_7P8yuamLv-57">
          <mxGeometry y="240" width="130" height="30" as="geometry" />
        </mxCell>
        <mxCell id="4XpJfRSCnI_7P8yuamLv-65" value="pedidoID" style="text;strokeColor=none;fillColor=none;align=left;verticalAlign=middle;spacingLeft=4;spacingRight=4;overflow=hidden;points=[[0,0.5],[1,0.5]];portConstraint=eastwest;rotatable=0;whiteSpace=wrap;html=1;" vertex="1" parent="4XpJfRSCnI_7P8yuamLv-57">
          <mxGeometry y="270" width="130" height="30" as="geometry" />
        </mxCell>
        <mxCell id="4XpJfRSCnI_7P8yuamLv-66" value="" style="swimlane;fontStyle=0;childLayout=stackLayout;horizontal=1;startSize=0;horizontalStack=0;resizeParent=1;resizeParentMax=0;resizeLast=0;collapsible=1;marginBottom=0;whiteSpace=wrap;html=1;" vertex="1" parent="4XpJfRSCnI_7P8yuamLv-57">
          <mxGeometry y="300" width="130" height="120" as="geometry" />
        </mxCell>
        <mxCell id="4XpJfRSCnI_7P8yuamLv-67" value="&lt;span style=&quot;white-space: pre;&quot;&gt;&#x9;&lt;/span&gt;operations" style="text;strokeColor=none;fillColor=none;align=left;verticalAlign=middle;spacingLeft=4;spacingRight=4;overflow=hidden;points=[[0,0.5],[1,0.5]];portConstraint=eastwest;rotatable=0;whiteSpace=wrap;html=1;" vertex="1" parent="4XpJfRSCnI_7P8yuamLv-66">
          <mxGeometry width="130" height="30" as="geometry" />
        </mxCell>
        <mxCell id="4XpJfRSCnI_7P8yuamLv-68" value="inserirBD" style="text;strokeColor=none;fillColor=none;align=left;verticalAlign=middle;spacingLeft=4;spacingRight=4;overflow=hidden;points=[[0,0.5],[1,0.5]];portConstraint=eastwest;rotatable=0;whiteSpace=wrap;html=1;" vertex="1" parent="4XpJfRSCnI_7P8yuamLv-66">
          <mxGeometry y="30" width="130" height="30" as="geometry" />
        </mxCell>
        <mxCell id="4XpJfRSCnI_7P8yuamLv-69" value="validadorCPF" style="text;strokeColor=none;fillColor=none;align=left;verticalAlign=middle;spacingLeft=4;spacingRight=4;overflow=hidden;points=[[0,0.5],[1,0.5]];portConstraint=eastwest;rotatable=0;whiteSpace=wrap;html=1;" vertex="1" parent="4XpJfRSCnI_7P8yuamLv-66">
          <mxGeometry y="60" width="130" height="30" as="geometry" />
        </mxCell>
        <mxCell id="4XpJfRSCnI_7P8yuamLv-70" value="validadorEndereco" style="text;strokeColor=none;fillColor=none;align=left;verticalAlign=middle;spacingLeft=4;spacingRight=4;overflow=hidden;points=[[0,0.5],[1,0.5]];portConstraint=eastwest;rotatable=0;whiteSpace=wrap;html=1;" vertex="1" parent="4XpJfRSCnI_7P8yuamLv-66">
          <mxGeometry y="90" width="130" height="30" as="geometry" />
        </mxCell>
        <mxCell id="4XpJfRSCnI_7P8yuamLv-75" value="Pedido" style="swimlane;fontStyle=0;childLayout=stackLayout;horizontal=1;startSize=30;horizontalStack=0;resizeParent=1;resizeParentMax=0;resizeLast=0;collapsible=1;marginBottom=0;whiteSpace=wrap;html=1;" vertex="1" parent="1">
          <mxGeometry x="250" y="200" width="130" height="300" as="geometry">
            <mxRectangle x="340" y="190" width="80" height="30" as="alternateBounds" />
          </mxGeometry>
        </mxCell>
        <mxCell id="4XpJfRSCnI_7P8yuamLv-76" value="&lt;span style=&quot;white-space: pre;&quot;&gt;&#x9;&lt;/span&gt;atributes" style="text;strokeColor=none;fillColor=none;align=left;verticalAlign=middle;spacingLeft=4;spacingRight=4;overflow=hidden;points=[[0,0.5],[1,0.5]];portConstraint=eastwest;rotatable=0;whiteSpace=wrap;html=1;" vertex="1" parent="4XpJfRSCnI_7P8yuamLv-75">
          <mxGeometry y="30" width="130" height="30" as="geometry" />
        </mxCell>
        <mxCell id="4XpJfRSCnI_7P8yuamLv-77" value="id" style="text;strokeColor=none;fillColor=none;align=left;verticalAlign=middle;spacingLeft=4;spacingRight=4;overflow=hidden;points=[[0,0.5],[1,0.5]];portConstraint=eastwest;rotatable=0;whiteSpace=wrap;html=1;" vertex="1" parent="4XpJfRSCnI_7P8yuamLv-75">
          <mxGeometry y="60" width="130" height="30" as="geometry" />
        </mxCell>
        <mxCell id="4XpJfRSCnI_7P8yuamLv-133" value="produtoID" style="text;strokeColor=none;fillColor=none;align=left;verticalAlign=middle;spacingLeft=4;spacingRight=4;overflow=hidden;points=[[0,0.5],[1,0.5]];portConstraint=eastwest;rotatable=0;whiteSpace=wrap;html=1;" vertex="1" parent="4XpJfRSCnI_7P8yuamLv-75">
          <mxGeometry y="90" width="130" height="30" as="geometry" />
        </mxCell>
        <mxCell id="4XpJfRSCnI_7P8yuamLv-90" value="qntde" style="text;strokeColor=none;fillColor=none;align=left;verticalAlign=middle;spacingLeft=4;spacingRight=4;overflow=hidden;points=[[0,0.5],[1,0.5]];portConstraint=eastwest;rotatable=0;whiteSpace=wrap;html=1;" vertex="1" parent="4XpJfRSCnI_7P8yuamLv-75">
          <mxGeometry y="120" width="130" height="30" as="geometry" />
        </mxCell>
        <mxCell id="4XpJfRSCnI_7P8yuamLv-78" value="valor" style="text;strokeColor=none;fillColor=none;align=left;verticalAlign=middle;spacingLeft=4;spacingRight=4;overflow=hidden;points=[[0,0.5],[1,0.5]];portConstraint=eastwest;rotatable=0;whiteSpace=wrap;html=1;" vertex="1" parent="4XpJfRSCnI_7P8yuamLv-75">
          <mxGeometry y="150" width="130" height="30" as="geometry" />
        </mxCell>
        <mxCell id="4XpJfRSCnI_7P8yuamLv-79" value="descricao" style="text;strokeColor=none;fillColor=none;align=left;verticalAlign=middle;spacingLeft=4;spacingRight=4;overflow=hidden;points=[[0,0.5],[1,0.5]];portConstraint=eastwest;rotatable=0;whiteSpace=wrap;html=1;" vertex="1" parent="4XpJfRSCnI_7P8yuamLv-75">
          <mxGeometry y="180" width="130" height="30" as="geometry" />
        </mxCell>
        <mxCell id="4XpJfRSCnI_7P8yuamLv-80" value="valor" style="text;strokeColor=none;fillColor=none;align=left;verticalAlign=middle;spacingLeft=4;spacingRight=4;overflow=hidden;points=[[0,0.5],[1,0.5]];portConstraint=eastwest;rotatable=0;whiteSpace=wrap;html=1;" vertex="1" parent="4XpJfRSCnI_7P8yuamLv-75">
          <mxGeometry y="210" width="130" height="30" as="geometry" />
        </mxCell>
        <mxCell id="4XpJfRSCnI_7P8yuamLv-84" value="" style="swimlane;fontStyle=0;childLayout=stackLayout;horizontal=1;startSize=0;horizontalStack=0;resizeParent=1;resizeParentMax=0;resizeLast=0;collapsible=1;marginBottom=0;whiteSpace=wrap;html=1;" vertex="1" parent="4XpJfRSCnI_7P8yuamLv-75">
          <mxGeometry y="240" width="130" height="60" as="geometry" />
        </mxCell>
        <mxCell id="4XpJfRSCnI_7P8yuamLv-85" value="&lt;span style=&quot;white-space: pre;&quot;&gt;&#x9;&lt;/span&gt;operations" style="text;strokeColor=none;fillColor=none;align=left;verticalAlign=middle;spacingLeft=4;spacingRight=4;overflow=hidden;points=[[0,0.5],[1,0.5]];portConstraint=eastwest;rotatable=0;whiteSpace=wrap;html=1;" vertex="1" parent="4XpJfRSCnI_7P8yuamLv-84">
          <mxGeometry width="130" height="30" as="geometry" />
        </mxCell>
        <mxCell id="4XpJfRSCnI_7P8yuamLv-86" value="somaPrdutos" style="text;strokeColor=none;fillColor=none;align=left;verticalAlign=middle;spacingLeft=4;spacingRight=4;overflow=hidden;points=[[0,0.5],[1,0.5]];portConstraint=eastwest;rotatable=0;whiteSpace=wrap;html=1;" vertex="1" parent="4XpJfRSCnI_7P8yuamLv-84">
          <mxGeometry y="30" width="130" height="30" as="geometry" />
        </mxCell>
        <mxCell id="4XpJfRSCnI_7P8yuamLv-105" value="Produto" style="swimlane;fontStyle=0;childLayout=stackLayout;horizontal=1;startSize=30;horizontalStack=0;resizeParent=1;resizeParentMax=0;resizeLast=0;collapsible=1;marginBottom=0;whiteSpace=wrap;html=1;" vertex="1" parent="1">
          <mxGeometry x="440" y="270" width="130" height="300" as="geometry">
            <mxRectangle x="340" y="190" width="80" height="30" as="alternateBounds" />
          </mxGeometry>
        </mxCell>
        <mxCell id="4XpJfRSCnI_7P8yuamLv-106" value="&lt;span style=&quot;white-space: pre;&quot;&gt;&#x9;&lt;/span&gt;atributes" style="text;strokeColor=none;fillColor=none;align=left;verticalAlign=middle;spacingLeft=4;spacingRight=4;overflow=hidden;points=[[0,0.5],[1,0.5]];portConstraint=eastwest;rotatable=0;whiteSpace=wrap;html=1;" vertex="1" parent="4XpJfRSCnI_7P8yuamLv-105">
          <mxGeometry y="30" width="130" height="30" as="geometry" />
        </mxCell>
        <mxCell id="4XpJfRSCnI_7P8yuamLv-107" value="id" style="text;strokeColor=none;fillColor=none;align=left;verticalAlign=middle;spacingLeft=4;spacingRight=4;overflow=hidden;points=[[0,0.5],[1,0.5]];portConstraint=eastwest;rotatable=0;whiteSpace=wrap;html=1;" vertex="1" parent="4XpJfRSCnI_7P8yuamLv-105">
          <mxGeometry y="60" width="130" height="30" as="geometry" />
        </mxCell>
        <mxCell id="4XpJfRSCnI_7P8yuamLv-108" value="nome&lt;span style=&quot;white-space: pre;&quot;&gt;&#x9;&lt;/span&gt;" style="text;strokeColor=none;fillColor=none;align=left;verticalAlign=middle;spacingLeft=4;spacingRight=4;overflow=hidden;points=[[0,0.5],[1,0.5]];portConstraint=eastwest;rotatable=0;whiteSpace=wrap;html=1;" vertex="1" parent="4XpJfRSCnI_7P8yuamLv-105">
          <mxGeometry y="90" width="130" height="30" as="geometry" />
        </mxCell>
        <mxCell id="4XpJfRSCnI_7P8yuamLv-145" style="edgeStyle=orthogonalEdgeStyle;rounded=0;orthogonalLoop=1;jettySize=auto;html=1;exitX=0;exitY=0.5;exitDx=0;exitDy=0;" edge="1" parent="4XpJfRSCnI_7P8yuamLv-105" source="4XpJfRSCnI_7P8yuamLv-109">
          <mxGeometry relative="1" as="geometry">
            <mxPoint x="-60" y="135" as="targetPoint" />
            <Array as="points">
              <mxPoint x="-50" y="135" />
              <mxPoint x="-50" y="135" />
            </Array>
          </mxGeometry>
        </mxCell>
        <mxCell id="4XpJfRSCnI_7P8yuamLv-148" value="&amp;nbsp;temUm" style="edgeLabel;html=1;align=center;verticalAlign=middle;resizable=0;points=[];" vertex="1" connectable="0" parent="4XpJfRSCnI_7P8yuamLv-145">
          <mxGeometry x="0.0772" y="2" relative="1" as="geometry">
            <mxPoint as="offset" />
          </mxGeometry>
        </mxCell>
        <mxCell id="4XpJfRSCnI_7P8yuamLv-109" value="empresaOrigem" style="text;strokeColor=none;fillColor=none;align=left;verticalAlign=middle;spacingLeft=4;spacingRight=4;overflow=hidden;points=[[0,0.5],[1,0.5]];portConstraint=eastwest;rotatable=0;whiteSpace=wrap;html=1;" vertex="1" parent="4XpJfRSCnI_7P8yuamLv-105">
          <mxGeometry y="120" width="130" height="30" as="geometry" />
        </mxCell>
        <mxCell id="4XpJfRSCnI_7P8yuamLv-110" value="qntde" style="text;strokeColor=none;fillColor=none;align=left;verticalAlign=middle;spacingLeft=4;spacingRight=4;overflow=hidden;points=[[0,0.5],[1,0.5]];portConstraint=eastwest;rotatable=0;whiteSpace=wrap;html=1;" vertex="1" parent="4XpJfRSCnI_7P8yuamLv-105">
          <mxGeometry y="150" width="130" height="30" as="geometry" />
        </mxCell>
        <mxCell id="4XpJfRSCnI_7P8yuamLv-111" value="valor" style="text;strokeColor=none;fillColor=none;align=left;verticalAlign=middle;spacingLeft=4;spacingRight=4;overflow=hidden;points=[[0,0.5],[1,0.5]];portConstraint=eastwest;rotatable=0;whiteSpace=wrap;html=1;" vertex="1" parent="4XpJfRSCnI_7P8yuamLv-105">
          <mxGeometry y="180" width="130" height="30" as="geometry" />
        </mxCell>
        <mxCell id="4XpJfRSCnI_7P8yuamLv-112" value="descricao" style="text;strokeColor=none;fillColor=none;align=left;verticalAlign=middle;spacingLeft=4;spacingRight=4;overflow=hidden;points=[[0,0.5],[1,0.5]];portConstraint=eastwest;rotatable=0;whiteSpace=wrap;html=1;" vertex="1" parent="4XpJfRSCnI_7P8yuamLv-105">
          <mxGeometry y="210" width="130" height="30" as="geometry" />
        </mxCell>
        <mxCell id="4XpJfRSCnI_7P8yuamLv-114" value="" style="swimlane;fontStyle=0;childLayout=stackLayout;horizontal=1;startSize=0;horizontalStack=0;resizeParent=1;resizeParentMax=0;resizeLast=0;collapsible=1;marginBottom=0;whiteSpace=wrap;html=1;" vertex="1" parent="4XpJfRSCnI_7P8yuamLv-105">
          <mxGeometry y="240" width="130" height="60" as="geometry" />
        </mxCell>
        <mxCell id="4XpJfRSCnI_7P8yuamLv-115" value="&lt;span style=&quot;white-space: pre;&quot;&gt;&#x9;&lt;/span&gt;operations" style="text;strokeColor=none;fillColor=none;align=left;verticalAlign=middle;spacingLeft=4;spacingRight=4;overflow=hidden;points=[[0,0.5],[1,0.5]];portConstraint=eastwest;rotatable=0;whiteSpace=wrap;html=1;" vertex="1" parent="4XpJfRSCnI_7P8yuamLv-114">
          <mxGeometry width="130" height="30" as="geometry" />
        </mxCell>
        <mxCell id="4XpJfRSCnI_7P8yuamLv-118" value="inserirBD" style="text;strokeColor=none;fillColor=none;align=left;verticalAlign=middle;spacingLeft=4;spacingRight=4;overflow=hidden;points=[[0,0.5],[1,0.5]];portConstraint=eastwest;rotatable=0;whiteSpace=wrap;html=1;" vertex="1" parent="4XpJfRSCnI_7P8yuamLv-114">
          <mxGeometry y="30" width="130" height="30" as="geometry" />
        </mxCell>
        <mxCell id="4XpJfRSCnI_7P8yuamLv-120" value="Entrega" style="swimlane;fontStyle=0;childLayout=stackLayout;horizontal=1;startSize=30;horizontalStack=0;resizeParent=1;resizeParentMax=0;resizeLast=0;collapsible=1;marginBottom=0;whiteSpace=wrap;html=1;" vertex="1" parent="1">
          <mxGeometry x="40" y="200" width="130" height="240" as="geometry">
            <mxRectangle x="340" y="190" width="80" height="30" as="alternateBounds" />
          </mxGeometry>
        </mxCell>
        <mxCell id="4XpJfRSCnI_7P8yuamLv-121" value="&lt;span style=&quot;white-space: pre;&quot;&gt;&#x9;&lt;/span&gt;atributes" style="text;strokeColor=none;fillColor=none;align=left;verticalAlign=middle;spacingLeft=4;spacingRight=4;overflow=hidden;points=[[0,0.5],[1,0.5]];portConstraint=eastwest;rotatable=0;whiteSpace=wrap;html=1;" vertex="1" parent="4XpJfRSCnI_7P8yuamLv-120">
          <mxGeometry y="30" width="130" height="30" as="geometry" />
        </mxCell>
        <mxCell id="4XpJfRSCnI_7P8yuamLv-122" value="id" style="text;strokeColor=none;fillColor=none;align=left;verticalAlign=middle;spacingLeft=4;spacingRight=4;overflow=hidden;points=[[0,0.5],[1,0.5]];portConstraint=eastwest;rotatable=0;whiteSpace=wrap;html=1;" vertex="1" parent="4XpJfRSCnI_7P8yuamLv-120">
          <mxGeometry y="60" width="130" height="30" as="geometry" />
        </mxCell>
        <mxCell id="4XpJfRSCnI_7P8yuamLv-123" value="cliente" style="text;strokeColor=none;fillColor=none;align=left;verticalAlign=middle;spacingLeft=4;spacingRight=4;overflow=hidden;points=[[0,0.5],[1,0.5]];portConstraint=eastwest;rotatable=0;whiteSpace=wrap;html=1;" vertex="1" parent="4XpJfRSCnI_7P8yuamLv-120">
          <mxGeometry y="90" width="130" height="30" as="geometry" />
        </mxCell>
        <mxCell id="4XpJfRSCnI_7P8yuamLv-124" value="pedido" style="text;strokeColor=none;fillColor=none;align=left;verticalAlign=middle;spacingLeft=4;spacingRight=4;overflow=hidden;points=[[0,0.5],[1,0.5]];portConstraint=eastwest;rotatable=0;whiteSpace=wrap;html=1;" vertex="1" parent="4XpJfRSCnI_7P8yuamLv-120">
          <mxGeometry y="120" width="130" height="30" as="geometry" />
        </mxCell>
        <mxCell id="4XpJfRSCnI_7P8yuamLv-125" value="valor" style="text;strokeColor=none;fillColor=none;align=left;verticalAlign=middle;spacingLeft=4;spacingRight=4;overflow=hidden;points=[[0,0.5],[1,0.5]];portConstraint=eastwest;rotatable=0;whiteSpace=wrap;html=1;" vertex="1" parent="4XpJfRSCnI_7P8yuamLv-120">
          <mxGeometry y="150" width="130" height="30" as="geometry" />
        </mxCell>
        <mxCell id="4XpJfRSCnI_7P8yuamLv-128" value="" style="swimlane;fontStyle=0;childLayout=stackLayout;horizontal=1;startSize=0;horizontalStack=0;resizeParent=1;resizeParentMax=0;resizeLast=0;collapsible=1;marginBottom=0;whiteSpace=wrap;html=1;" vertex="1" parent="4XpJfRSCnI_7P8yuamLv-120">
          <mxGeometry y="180" width="130" height="60" as="geometry" />
        </mxCell>
        <mxCell id="4XpJfRSCnI_7P8yuamLv-129" value="&lt;span style=&quot;white-space: pre;&quot;&gt;&#x9;&lt;/span&gt;operations" style="text;strokeColor=none;fillColor=none;align=left;verticalAlign=middle;spacingLeft=4;spacingRight=4;overflow=hidden;points=[[0,0.5],[1,0.5]];portConstraint=eastwest;rotatable=0;whiteSpace=wrap;html=1;" vertex="1" parent="4XpJfRSCnI_7P8yuamLv-128">
          <mxGeometry width="130" height="30" as="geometry" />
        </mxCell>
        <mxCell id="4XpJfRSCnI_7P8yuamLv-130" value="APIcorreio" style="text;strokeColor=none;fillColor=none;align=left;verticalAlign=middle;spacingLeft=4;spacingRight=4;overflow=hidden;points=[[0,0.5],[1,0.5]];portConstraint=eastwest;rotatable=0;whiteSpace=wrap;html=1;" vertex="1" parent="4XpJfRSCnI_7P8yuamLv-128">
          <mxGeometry y="30" width="130" height="30" as="geometry" />
        </mxCell>
        <mxCell id="4XpJfRSCnI_7P8yuamLv-141" style="edgeStyle=orthogonalEdgeStyle;rounded=0;orthogonalLoop=1;jettySize=auto;html=1;exitX=0;exitY=0.5;exitDx=0;exitDy=0;entryX=1;entryY=0.5;entryDx=0;entryDy=0;" edge="1" parent="1" source="4XpJfRSCnI_7P8yuamLv-78" target="4XpJfRSCnI_7P8yuamLv-125">
          <mxGeometry relative="1" as="geometry" />
        </mxCell>
        <mxCell id="4XpJfRSCnI_7P8yuamLv-147" value="temUm" style="edgeLabel;html=1;align=center;verticalAlign=middle;resizable=0;points=[];" vertex="1" connectable="0" parent="4XpJfRSCnI_7P8yuamLv-141">
          <mxGeometry x="0.0842" y="-2" relative="1" as="geometry">
            <mxPoint as="offset" />
          </mxGeometry>
        </mxCell>
        <mxCell id="4XpJfRSCnI_7P8yuamLv-150" value="*" style="text;html=1;align=center;verticalAlign=middle;resizable=0;points=[];autosize=1;strokeColor=none;fillColor=none;" vertex="1" parent="1">
          <mxGeometry x="395" y="190" width="30" height="30" as="geometry" />
        </mxCell>
        <mxCell id="4XpJfRSCnI_7P8yuamLv-151" value="1" style="text;html=1;align=center;verticalAlign=middle;resizable=0;points=[];autosize=1;strokeColor=none;fillColor=none;" vertex="1" parent="1">
          <mxGeometry x="600" y="190" width="30" height="30" as="geometry" />
        </mxCell>
        <mxCell id="4XpJfRSCnI_7P8yuamLv-152" value="1" style="text;html=1;align=center;verticalAlign=middle;resizable=0;points=[];autosize=1;strokeColor=none;fillColor=none;" vertex="1" parent="1">
          <mxGeometry x="415" y="378" width="30" height="30" as="geometry" />
        </mxCell>
        <mxCell id="4XpJfRSCnI_7P8yuamLv-153" value="*" style="text;html=1;align=center;verticalAlign=middle;resizable=0;points=[];autosize=1;strokeColor=none;fillColor=none;" vertex="1" parent="1">
          <mxGeometry x="375" y="378" width="30" height="30" as="geometry" />
        </mxCell>
        <mxCell id="4XpJfRSCnI_7P8yuamLv-154" value="1" style="text;html=1;align=center;verticalAlign=middle;resizable=0;points=[];autosize=1;strokeColor=none;fillColor=none;" vertex="1" parent="1">
          <mxGeometry x="220" y="335" width="30" height="30" as="geometry" />
        </mxCell>
        <mxCell id="4XpJfRSCnI_7P8yuamLv-156" value="*" style="text;html=1;align=center;verticalAlign=middle;resizable=0;points=[];autosize=1;strokeColor=none;fillColor=none;" vertex="1" parent="1">
          <mxGeometry x="170" y="335" width="30" height="30" as="geometry" />
        </mxCell>
        <mxCell id="4XpJfRSCnI_7P8yuamLv-161" value="" style="endArrow=none;html=1;rounded=0;" edge="1" parent="1">
          <mxGeometry width="50" height="50" relative="1" as="geometry">
            <mxPoint y="600" as="sourcePoint" />
            <mxPoint x="830" y="600" as="targetPoint" />
          </mxGeometry>
        </mxCell>
        <mxCell id="4XpJfRSCnI_7P8yuamLv-164" value="" style="endArrow=none;html=1;rounded=0;" edge="1" parent="1">
          <mxGeometry width="50" height="50" relative="1" as="geometry">
            <mxPoint as="sourcePoint" />
            <mxPoint x="830" as="targetPoint" />
          </mxGeometry>
        </mxCell>
        <mxCell id="4XpJfRSCnI_7P8yuamLv-224" value="02 - Sistema de Gerenciamento de Hospital" style="rounded=1;whiteSpace=wrap;html=1;" vertex="1" parent="1">
          <mxGeometry x="250" y="620" width="240" height="40" as="geometry" />
        </mxCell>
        <mxCell id="4XpJfRSCnI_7P8yuamLv-227" value="Consulta" style="swimlane;fontStyle=0;childLayout=stackLayout;horizontal=1;startSize=30;horizontalStack=0;resizeParent=1;resizeParentMax=0;resizeLast=0;collapsible=1;marginBottom=0;whiteSpace=wrap;html=1;" vertex="1" parent="1">
          <mxGeometry x="185" y="710" width="130" height="360" as="geometry">
            <mxRectangle x="340" y="190" width="80" height="30" as="alternateBounds" />
          </mxGeometry>
        </mxCell>
        <mxCell id="4XpJfRSCnI_7P8yuamLv-228" value="&lt;span style=&quot;white-space: pre;&quot;&gt;&#x9;&lt;/span&gt;atributes" style="text;strokeColor=none;fillColor=none;align=left;verticalAlign=middle;spacingLeft=4;spacingRight=4;overflow=hidden;points=[[0,0.5],[1,0.5]];portConstraint=eastwest;rotatable=0;whiteSpace=wrap;html=1;" vertex="1" parent="4XpJfRSCnI_7P8yuamLv-227">
          <mxGeometry y="30" width="130" height="30" as="geometry" />
        </mxCell>
        <mxCell id="4XpJfRSCnI_7P8yuamLv-229" value="id" style="text;strokeColor=none;fillColor=none;align=left;verticalAlign=middle;spacingLeft=4;spacingRight=4;overflow=hidden;points=[[0,0.5],[1,0.5]];portConstraint=eastwest;rotatable=0;whiteSpace=wrap;html=1;" vertex="1" parent="4XpJfRSCnI_7P8yuamLv-227">
          <mxGeometry y="60" width="130" height="30" as="geometry" />
        </mxCell>
        <mxCell id="4XpJfRSCnI_7P8yuamLv-231" value="idExame" style="text;strokeColor=none;fillColor=none;align=left;verticalAlign=middle;spacingLeft=4;spacingRight=4;overflow=hidden;points=[[0,0.5],[1,0.5]];portConstraint=eastwest;rotatable=0;whiteSpace=wrap;html=1;" vertex="1" parent="4XpJfRSCnI_7P8yuamLv-227">
          <mxGeometry y="90" width="130" height="30" as="geometry" />
        </mxCell>
        <mxCell id="4XpJfRSCnI_7P8yuamLv-232" value="idPaciente" style="text;strokeColor=none;fillColor=none;align=left;verticalAlign=middle;spacingLeft=4;spacingRight=4;overflow=hidden;points=[[0,0.5],[1,0.5]];portConstraint=eastwest;rotatable=0;whiteSpace=wrap;html=1;" vertex="1" parent="4XpJfRSCnI_7P8yuamLv-227">
          <mxGeometry y="120" width="130" height="30" as="geometry" />
        </mxCell>
        <mxCell id="4XpJfRSCnI_7P8yuamLv-403" value="idMedico" style="text;strokeColor=none;fillColor=none;align=left;verticalAlign=middle;spacingLeft=4;spacingRight=4;overflow=hidden;points=[[0,0.5],[1,0.5]];portConstraint=eastwest;rotatable=0;whiteSpace=wrap;html=1;" vertex="1" parent="4XpJfRSCnI_7P8yuamLv-227">
          <mxGeometry y="150" width="130" height="30" as="geometry" />
        </mxCell>
        <mxCell id="4XpJfRSCnI_7P8yuamLv-404" value="idEnfermeira" style="text;strokeColor=none;fillColor=none;align=left;verticalAlign=middle;spacingLeft=4;spacingRight=4;overflow=hidden;points=[[0,0.5],[1,0.5]];portConstraint=eastwest;rotatable=0;whiteSpace=wrap;html=1;" vertex="1" parent="4XpJfRSCnI_7P8yuamLv-227">
          <mxGeometry y="180" width="130" height="30" as="geometry" />
        </mxCell>
        <mxCell id="4XpJfRSCnI_7P8yuamLv-233" value="descricao" style="text;strokeColor=none;fillColor=none;align=left;verticalAlign=middle;spacingLeft=4;spacingRight=4;overflow=hidden;points=[[0,0.5],[1,0.5]];portConstraint=eastwest;rotatable=0;whiteSpace=wrap;html=1;" vertex="1" parent="4XpJfRSCnI_7P8yuamLv-227">
          <mxGeometry y="210" width="130" height="30" as="geometry" />
        </mxCell>
        <mxCell id="4XpJfRSCnI_7P8yuamLv-405" value="qntd" style="text;strokeColor=none;fillColor=none;align=left;verticalAlign=middle;spacingLeft=4;spacingRight=4;overflow=hidden;points=[[0,0.5],[1,0.5]];portConstraint=eastwest;rotatable=0;whiteSpace=wrap;html=1;" vertex="1" parent="4XpJfRSCnI_7P8yuamLv-227">
          <mxGeometry y="240" width="130" height="30" as="geometry" />
        </mxCell>
        <mxCell id="4XpJfRSCnI_7P8yuamLv-234" value="valor" style="text;strokeColor=none;fillColor=none;align=left;verticalAlign=middle;spacingLeft=4;spacingRight=4;overflow=hidden;points=[[0,0.5],[1,0.5]];portConstraint=eastwest;rotatable=0;whiteSpace=wrap;html=1;" vertex="1" parent="4XpJfRSCnI_7P8yuamLv-227">
          <mxGeometry y="270" width="130" height="30" as="geometry" />
        </mxCell>
        <mxCell id="4XpJfRSCnI_7P8yuamLv-235" value="" style="swimlane;fontStyle=0;childLayout=stackLayout;horizontal=1;startSize=0;horizontalStack=0;resizeParent=1;resizeParentMax=0;resizeLast=0;collapsible=1;marginBottom=0;whiteSpace=wrap;html=1;" vertex="1" parent="4XpJfRSCnI_7P8yuamLv-227">
          <mxGeometry y="300" width="130" height="60" as="geometry" />
        </mxCell>
        <mxCell id="4XpJfRSCnI_7P8yuamLv-236" value="&lt;span style=&quot;white-space: pre;&quot;&gt;&#x9;&lt;/span&gt;operations" style="text;strokeColor=none;fillColor=none;align=left;verticalAlign=middle;spacingLeft=4;spacingRight=4;overflow=hidden;points=[[0,0.5],[1,0.5]];portConstraint=eastwest;rotatable=0;whiteSpace=wrap;html=1;" vertex="1" parent="4XpJfRSCnI_7P8yuamLv-235">
          <mxGeometry width="130" height="30" as="geometry" />
        </mxCell>
        <mxCell id="4XpJfRSCnI_7P8yuamLv-237" value="somarValor" style="text;strokeColor=none;fillColor=none;align=left;verticalAlign=middle;spacingLeft=4;spacingRight=4;overflow=hidden;points=[[0,0.5],[1,0.5]];portConstraint=eastwest;rotatable=0;whiteSpace=wrap;html=1;" vertex="1" parent="4XpJfRSCnI_7P8yuamLv-235">
          <mxGeometry y="30" width="130" height="30" as="geometry" />
        </mxCell>
        <mxCell id="4XpJfRSCnI_7P8yuamLv-268" value="Paciente" style="swimlane;fontStyle=0;childLayout=stackLayout;horizontal=1;startSize=30;horizontalStack=0;resizeParent=1;resizeParentMax=0;resizeLast=0;collapsible=1;marginBottom=0;whiteSpace=wrap;html=1;" vertex="1" parent="1">
          <mxGeometry x="520" y="1080" width="130" height="390" as="geometry">
            <mxRectangle x="340" y="190" width="80" height="30" as="alternateBounds" />
          </mxGeometry>
        </mxCell>
        <mxCell id="4XpJfRSCnI_7P8yuamLv-269" value="&lt;span style=&quot;white-space: pre;&quot;&gt;&#x9;&lt;/span&gt;atributes" style="text;strokeColor=none;fillColor=none;align=left;verticalAlign=middle;spacingLeft=4;spacingRight=4;overflow=hidden;points=[[0,0.5],[1,0.5]];portConstraint=eastwest;rotatable=0;whiteSpace=wrap;html=1;" vertex="1" parent="4XpJfRSCnI_7P8yuamLv-268">
          <mxGeometry y="30" width="130" height="30" as="geometry" />
        </mxCell>
        <mxCell id="4XpJfRSCnI_7P8yuamLv-270" value="id" style="text;strokeColor=none;fillColor=none;align=left;verticalAlign=middle;spacingLeft=4;spacingRight=4;overflow=hidden;points=[[0,0.5],[1,0.5]];portConstraint=eastwest;rotatable=0;whiteSpace=wrap;html=1;" vertex="1" parent="4XpJfRSCnI_7P8yuamLv-268">
          <mxGeometry y="60" width="130" height="30" as="geometry" />
        </mxCell>
        <mxCell id="4XpJfRSCnI_7P8yuamLv-273" value="nome&lt;span style=&quot;white-space: pre;&quot;&gt;&#x9;&lt;/span&gt;" style="text;strokeColor=none;fillColor=none;align=left;verticalAlign=middle;spacingLeft=4;spacingRight=4;overflow=hidden;points=[[0,0.5],[1,0.5]];portConstraint=eastwest;rotatable=0;whiteSpace=wrap;html=1;" vertex="1" parent="4XpJfRSCnI_7P8yuamLv-268">
          <mxGeometry y="90" width="130" height="30" as="geometry" />
        </mxCell>
        <mxCell id="4XpJfRSCnI_7P8yuamLv-274" value="dataNasc" style="text;strokeColor=none;fillColor=none;align=left;verticalAlign=middle;spacingLeft=4;spacingRight=4;overflow=hidden;points=[[0,0.5],[1,0.5]];portConstraint=eastwest;rotatable=0;whiteSpace=wrap;html=1;" vertex="1" parent="4XpJfRSCnI_7P8yuamLv-268">
          <mxGeometry y="120" width="130" height="30" as="geometry" />
        </mxCell>
        <mxCell id="4XpJfRSCnI_7P8yuamLv-275" value="sobrenome" style="text;strokeColor=none;fillColor=none;align=left;verticalAlign=middle;spacingLeft=4;spacingRight=4;overflow=hidden;points=[[0,0.5],[1,0.5]];portConstraint=eastwest;rotatable=0;whiteSpace=wrap;html=1;" vertex="1" parent="4XpJfRSCnI_7P8yuamLv-268">
          <mxGeometry y="150" width="130" height="30" as="geometry" />
        </mxCell>
        <mxCell id="4XpJfRSCnI_7P8yuamLv-276" value="cpf" style="text;strokeColor=none;fillColor=none;align=left;verticalAlign=middle;spacingLeft=4;spacingRight=4;overflow=hidden;points=[[0,0.5],[1,0.5]];portConstraint=eastwest;rotatable=0;whiteSpace=wrap;html=1;" vertex="1" parent="4XpJfRSCnI_7P8yuamLv-268">
          <mxGeometry y="180" width="130" height="30" as="geometry" />
        </mxCell>
        <mxCell id="4XpJfRSCnI_7P8yuamLv-277" value="endereco" style="text;strokeColor=none;fillColor=none;align=left;verticalAlign=middle;spacingLeft=4;spacingRight=4;overflow=hidden;points=[[0,0.5],[1,0.5]];portConstraint=eastwest;rotatable=0;whiteSpace=wrap;html=1;" vertex="1" parent="4XpJfRSCnI_7P8yuamLv-268">
          <mxGeometry y="210" width="130" height="30" as="geometry" />
        </mxCell>
        <mxCell id="4XpJfRSCnI_7P8yuamLv-278" value="contato" style="text;strokeColor=none;fillColor=none;align=left;verticalAlign=middle;spacingLeft=4;spacingRight=4;overflow=hidden;points=[[0,0.5],[1,0.5]];portConstraint=eastwest;rotatable=0;whiteSpace=wrap;html=1;" vertex="1" parent="4XpJfRSCnI_7P8yuamLv-268">
          <mxGeometry y="240" width="130" height="30" as="geometry" />
        </mxCell>
        <mxCell id="4XpJfRSCnI_7P8yuamLv-280" value="" style="swimlane;fontStyle=0;childLayout=stackLayout;horizontal=1;startSize=0;horizontalStack=0;resizeParent=1;resizeParentMax=0;resizeLast=0;collapsible=1;marginBottom=0;whiteSpace=wrap;html=1;" vertex="1" parent="4XpJfRSCnI_7P8yuamLv-268">
          <mxGeometry y="270" width="130" height="120" as="geometry" />
        </mxCell>
        <mxCell id="4XpJfRSCnI_7P8yuamLv-281" value="&lt;span style=&quot;white-space: pre;&quot;&gt;&#x9;&lt;/span&gt;operations" style="text;strokeColor=none;fillColor=none;align=left;verticalAlign=middle;spacingLeft=4;spacingRight=4;overflow=hidden;points=[[0,0.5],[1,0.5]];portConstraint=eastwest;rotatable=0;whiteSpace=wrap;html=1;" vertex="1" parent="4XpJfRSCnI_7P8yuamLv-280">
          <mxGeometry width="130" height="30" as="geometry" />
        </mxCell>
        <mxCell id="4XpJfRSCnI_7P8yuamLv-282" value="inserirBD" style="text;strokeColor=none;fillColor=none;align=left;verticalAlign=middle;spacingLeft=4;spacingRight=4;overflow=hidden;points=[[0,0.5],[1,0.5]];portConstraint=eastwest;rotatable=0;whiteSpace=wrap;html=1;" vertex="1" parent="4XpJfRSCnI_7P8yuamLv-280">
          <mxGeometry y="30" width="130" height="30" as="geometry" />
        </mxCell>
        <mxCell id="4XpJfRSCnI_7P8yuamLv-283" value="validadorCPF" style="text;strokeColor=none;fillColor=none;align=left;verticalAlign=middle;spacingLeft=4;spacingRight=4;overflow=hidden;points=[[0,0.5],[1,0.5]];portConstraint=eastwest;rotatable=0;whiteSpace=wrap;html=1;" vertex="1" parent="4XpJfRSCnI_7P8yuamLv-280">
          <mxGeometry y="60" width="130" height="30" as="geometry" />
        </mxCell>
        <mxCell id="4XpJfRSCnI_7P8yuamLv-284" value="validadorEndereco" style="text;strokeColor=none;fillColor=none;align=left;verticalAlign=middle;spacingLeft=4;spacingRight=4;overflow=hidden;points=[[0,0.5],[1,0.5]];portConstraint=eastwest;rotatable=0;whiteSpace=wrap;html=1;" vertex="1" parent="4XpJfRSCnI_7P8yuamLv-280">
          <mxGeometry y="90" width="130" height="30" as="geometry" />
        </mxCell>
        <mxCell id="4XpJfRSCnI_7P8yuamLv-347" value="Medico" style="swimlane;fontStyle=0;childLayout=stackLayout;horizontal=1;startSize=30;horizontalStack=0;resizeParent=1;resizeParentMax=0;resizeLast=0;collapsible=1;marginBottom=0;whiteSpace=wrap;html=1;" vertex="1" parent="1">
          <mxGeometry x="315" y="1080" width="130" height="420" as="geometry">
            <mxRectangle x="340" y="190" width="80" height="30" as="alternateBounds" />
          </mxGeometry>
        </mxCell>
        <mxCell id="4XpJfRSCnI_7P8yuamLv-348" value="&lt;span style=&quot;white-space: pre;&quot;&gt;&#x9;&lt;/span&gt;atributes" style="text;strokeColor=none;fillColor=none;align=left;verticalAlign=middle;spacingLeft=4;spacingRight=4;overflow=hidden;points=[[0,0.5],[1,0.5]];portConstraint=eastwest;rotatable=0;whiteSpace=wrap;html=1;" vertex="1" parent="4XpJfRSCnI_7P8yuamLv-347">
          <mxGeometry y="30" width="130" height="30" as="geometry" />
        </mxCell>
        <mxCell id="4XpJfRSCnI_7P8yuamLv-349" value="id" style="text;strokeColor=none;fillColor=none;align=left;verticalAlign=middle;spacingLeft=4;spacingRight=4;overflow=hidden;points=[[0,0.5],[1,0.5]];portConstraint=eastwest;rotatable=0;whiteSpace=wrap;html=1;" vertex="1" parent="4XpJfRSCnI_7P8yuamLv-347">
          <mxGeometry y="60" width="130" height="30" as="geometry" />
        </mxCell>
        <mxCell id="4XpJfRSCnI_7P8yuamLv-350" value="nome&lt;span style=&quot;white-space: pre;&quot;&gt;&#x9;&lt;/span&gt;" style="text;strokeColor=none;fillColor=none;align=left;verticalAlign=middle;spacingLeft=4;spacingRight=4;overflow=hidden;points=[[0,0.5],[1,0.5]];portConstraint=eastwest;rotatable=0;whiteSpace=wrap;html=1;" vertex="1" parent="4XpJfRSCnI_7P8yuamLv-347">
          <mxGeometry y="90" width="130" height="30" as="geometry" />
        </mxCell>
        <mxCell id="4XpJfRSCnI_7P8yuamLv-351" value="dataNasc" style="text;strokeColor=none;fillColor=none;align=left;verticalAlign=middle;spacingLeft=4;spacingRight=4;overflow=hidden;points=[[0,0.5],[1,0.5]];portConstraint=eastwest;rotatable=0;whiteSpace=wrap;html=1;" vertex="1" parent="4XpJfRSCnI_7P8yuamLv-347">
          <mxGeometry y="120" width="130" height="30" as="geometry" />
        </mxCell>
        <mxCell id="4XpJfRSCnI_7P8yuamLv-352" value="sobrenome" style="text;strokeColor=none;fillColor=none;align=left;verticalAlign=middle;spacingLeft=4;spacingRight=4;overflow=hidden;points=[[0,0.5],[1,0.5]];portConstraint=eastwest;rotatable=0;whiteSpace=wrap;html=1;" vertex="1" parent="4XpJfRSCnI_7P8yuamLv-347">
          <mxGeometry y="150" width="130" height="30" as="geometry" />
        </mxCell>
        <mxCell id="4XpJfRSCnI_7P8yuamLv-353" value="cpf" style="text;strokeColor=none;fillColor=none;align=left;verticalAlign=middle;spacingLeft=4;spacingRight=4;overflow=hidden;points=[[0,0.5],[1,0.5]];portConstraint=eastwest;rotatable=0;whiteSpace=wrap;html=1;" vertex="1" parent="4XpJfRSCnI_7P8yuamLv-347">
          <mxGeometry y="180" width="130" height="30" as="geometry" />
        </mxCell>
        <mxCell id="4XpJfRSCnI_7P8yuamLv-354" value="endereco" style="text;strokeColor=none;fillColor=none;align=left;verticalAlign=middle;spacingLeft=4;spacingRight=4;overflow=hidden;points=[[0,0.5],[1,0.5]];portConstraint=eastwest;rotatable=0;whiteSpace=wrap;html=1;" vertex="1" parent="4XpJfRSCnI_7P8yuamLv-347">
          <mxGeometry y="210" width="130" height="30" as="geometry" />
        </mxCell>
        <mxCell id="4XpJfRSCnI_7P8yuamLv-355" value="contato" style="text;strokeColor=none;fillColor=none;align=left;verticalAlign=middle;spacingLeft=4;spacingRight=4;overflow=hidden;points=[[0,0.5],[1,0.5]];portConstraint=eastwest;rotatable=0;whiteSpace=wrap;html=1;" vertex="1" parent="4XpJfRSCnI_7P8yuamLv-347">
          <mxGeometry y="240" width="130" height="30" as="geometry" />
        </mxCell>
        <mxCell id="4XpJfRSCnI_7P8yuamLv-356" value="area" style="text;strokeColor=none;fillColor=none;align=left;verticalAlign=middle;spacingLeft=4;spacingRight=4;overflow=hidden;points=[[0,0.5],[1,0.5]];portConstraint=eastwest;rotatable=0;whiteSpace=wrap;html=1;" vertex="1" parent="4XpJfRSCnI_7P8yuamLv-347">
          <mxGeometry y="270" width="130" height="30" as="geometry" />
        </mxCell>
        <mxCell id="4XpJfRSCnI_7P8yuamLv-357" value="" style="swimlane;fontStyle=0;childLayout=stackLayout;horizontal=1;startSize=0;horizontalStack=0;resizeParent=1;resizeParentMax=0;resizeLast=0;collapsible=1;marginBottom=0;whiteSpace=wrap;html=1;" vertex="1" parent="4XpJfRSCnI_7P8yuamLv-347">
          <mxGeometry y="300" width="130" height="120" as="geometry" />
        </mxCell>
        <mxCell id="4XpJfRSCnI_7P8yuamLv-358" value="&lt;span style=&quot;white-space: pre;&quot;&gt;&#x9;&lt;/span&gt;operations" style="text;strokeColor=none;fillColor=none;align=left;verticalAlign=middle;spacingLeft=4;spacingRight=4;overflow=hidden;points=[[0,0.5],[1,0.5]];portConstraint=eastwest;rotatable=0;whiteSpace=wrap;html=1;" vertex="1" parent="4XpJfRSCnI_7P8yuamLv-357">
          <mxGeometry width="130" height="30" as="geometry" />
        </mxCell>
        <mxCell id="4XpJfRSCnI_7P8yuamLv-359" value="inserirBD" style="text;strokeColor=none;fillColor=none;align=left;verticalAlign=middle;spacingLeft=4;spacingRight=4;overflow=hidden;points=[[0,0.5],[1,0.5]];portConstraint=eastwest;rotatable=0;whiteSpace=wrap;html=1;" vertex="1" parent="4XpJfRSCnI_7P8yuamLv-357">
          <mxGeometry y="30" width="130" height="30" as="geometry" />
        </mxCell>
        <mxCell id="4XpJfRSCnI_7P8yuamLv-360" value="validadorCPF" style="text;strokeColor=none;fillColor=none;align=left;verticalAlign=middle;spacingLeft=4;spacingRight=4;overflow=hidden;points=[[0,0.5],[1,0.5]];portConstraint=eastwest;rotatable=0;whiteSpace=wrap;html=1;" vertex="1" parent="4XpJfRSCnI_7P8yuamLv-357">
          <mxGeometry y="60" width="130" height="30" as="geometry" />
        </mxCell>
        <mxCell id="4XpJfRSCnI_7P8yuamLv-361" value="validadorEndereco" style="text;strokeColor=none;fillColor=none;align=left;verticalAlign=middle;spacingLeft=4;spacingRight=4;overflow=hidden;points=[[0,0.5],[1,0.5]];portConstraint=eastwest;rotatable=0;whiteSpace=wrap;html=1;" vertex="1" parent="4XpJfRSCnI_7P8yuamLv-357">
          <mxGeometry y="90" width="130" height="30" as="geometry" />
        </mxCell>
        <mxCell id="4XpJfRSCnI_7P8yuamLv-378" value="Enfermeira" style="swimlane;fontStyle=0;childLayout=stackLayout;horizontal=1;startSize=30;horizontalStack=0;resizeParent=1;resizeParentMax=0;resizeLast=0;collapsible=1;marginBottom=0;whiteSpace=wrap;html=1;" vertex="1" parent="1">
          <mxGeometry x="110" y="1080" width="130" height="420" as="geometry">
            <mxRectangle x="340" y="190" width="80" height="30" as="alternateBounds" />
          </mxGeometry>
        </mxCell>
        <mxCell id="4XpJfRSCnI_7P8yuamLv-379" value="&lt;span style=&quot;white-space: pre;&quot;&gt;&#x9;&lt;/span&gt;atributes" style="text;strokeColor=none;fillColor=none;align=left;verticalAlign=middle;spacingLeft=4;spacingRight=4;overflow=hidden;points=[[0,0.5],[1,0.5]];portConstraint=eastwest;rotatable=0;whiteSpace=wrap;html=1;" vertex="1" parent="4XpJfRSCnI_7P8yuamLv-378">
          <mxGeometry y="30" width="130" height="30" as="geometry" />
        </mxCell>
        <mxCell id="4XpJfRSCnI_7P8yuamLv-380" value="id" style="text;strokeColor=none;fillColor=none;align=left;verticalAlign=middle;spacingLeft=4;spacingRight=4;overflow=hidden;points=[[0,0.5],[1,0.5]];portConstraint=eastwest;rotatable=0;whiteSpace=wrap;html=1;" vertex="1" parent="4XpJfRSCnI_7P8yuamLv-378">
          <mxGeometry y="60" width="130" height="30" as="geometry" />
        </mxCell>
        <mxCell id="4XpJfRSCnI_7P8yuamLv-381" value="nome&lt;span style=&quot;white-space: pre;&quot;&gt;&#x9;&lt;/span&gt;" style="text;strokeColor=none;fillColor=none;align=left;verticalAlign=middle;spacingLeft=4;spacingRight=4;overflow=hidden;points=[[0,0.5],[1,0.5]];portConstraint=eastwest;rotatable=0;whiteSpace=wrap;html=1;" vertex="1" parent="4XpJfRSCnI_7P8yuamLv-378">
          <mxGeometry y="90" width="130" height="30" as="geometry" />
        </mxCell>
        <mxCell id="4XpJfRSCnI_7P8yuamLv-382" value="dataNasc" style="text;strokeColor=none;fillColor=none;align=left;verticalAlign=middle;spacingLeft=4;spacingRight=4;overflow=hidden;points=[[0,0.5],[1,0.5]];portConstraint=eastwest;rotatable=0;whiteSpace=wrap;html=1;" vertex="1" parent="4XpJfRSCnI_7P8yuamLv-378">
          <mxGeometry y="120" width="130" height="30" as="geometry" />
        </mxCell>
        <mxCell id="4XpJfRSCnI_7P8yuamLv-383" value="sobrenome" style="text;strokeColor=none;fillColor=none;align=left;verticalAlign=middle;spacingLeft=4;spacingRight=4;overflow=hidden;points=[[0,0.5],[1,0.5]];portConstraint=eastwest;rotatable=0;whiteSpace=wrap;html=1;" vertex="1" parent="4XpJfRSCnI_7P8yuamLv-378">
          <mxGeometry y="150" width="130" height="30" as="geometry" />
        </mxCell>
        <mxCell id="4XpJfRSCnI_7P8yuamLv-384" value="cpf" style="text;strokeColor=none;fillColor=none;align=left;verticalAlign=middle;spacingLeft=4;spacingRight=4;overflow=hidden;points=[[0,0.5],[1,0.5]];portConstraint=eastwest;rotatable=0;whiteSpace=wrap;html=1;" vertex="1" parent="4XpJfRSCnI_7P8yuamLv-378">
          <mxGeometry y="180" width="130" height="30" as="geometry" />
        </mxCell>
        <mxCell id="4XpJfRSCnI_7P8yuamLv-385" value="endereco" style="text;strokeColor=none;fillColor=none;align=left;verticalAlign=middle;spacingLeft=4;spacingRight=4;overflow=hidden;points=[[0,0.5],[1,0.5]];portConstraint=eastwest;rotatable=0;whiteSpace=wrap;html=1;" vertex="1" parent="4XpJfRSCnI_7P8yuamLv-378">
          <mxGeometry y="210" width="130" height="30" as="geometry" />
        </mxCell>
        <mxCell id="4XpJfRSCnI_7P8yuamLv-386" value="contato" style="text;strokeColor=none;fillColor=none;align=left;verticalAlign=middle;spacingLeft=4;spacingRight=4;overflow=hidden;points=[[0,0.5],[1,0.5]];portConstraint=eastwest;rotatable=0;whiteSpace=wrap;html=1;" vertex="1" parent="4XpJfRSCnI_7P8yuamLv-378">
          <mxGeometry y="240" width="130" height="30" as="geometry" />
        </mxCell>
        <mxCell id="4XpJfRSCnI_7P8yuamLv-387" value="area" style="text;strokeColor=none;fillColor=none;align=left;verticalAlign=middle;spacingLeft=4;spacingRight=4;overflow=hidden;points=[[0,0.5],[1,0.5]];portConstraint=eastwest;rotatable=0;whiteSpace=wrap;html=1;" vertex="1" parent="4XpJfRSCnI_7P8yuamLv-378">
          <mxGeometry y="270" width="130" height="30" as="geometry" />
        </mxCell>
        <mxCell id="4XpJfRSCnI_7P8yuamLv-388" value="" style="swimlane;fontStyle=0;childLayout=stackLayout;horizontal=1;startSize=0;horizontalStack=0;resizeParent=1;resizeParentMax=0;resizeLast=0;collapsible=1;marginBottom=0;whiteSpace=wrap;html=1;" vertex="1" parent="4XpJfRSCnI_7P8yuamLv-378">
          <mxGeometry y="300" width="130" height="120" as="geometry" />
        </mxCell>
        <mxCell id="4XpJfRSCnI_7P8yuamLv-389" value="&lt;span style=&quot;white-space: pre;&quot;&gt;&#x9;&lt;/span&gt;operations" style="text;strokeColor=none;fillColor=none;align=left;verticalAlign=middle;spacingLeft=4;spacingRight=4;overflow=hidden;points=[[0,0.5],[1,0.5]];portConstraint=eastwest;rotatable=0;whiteSpace=wrap;html=1;" vertex="1" parent="4XpJfRSCnI_7P8yuamLv-388">
          <mxGeometry width="130" height="30" as="geometry" />
        </mxCell>
        <mxCell id="4XpJfRSCnI_7P8yuamLv-390" value="inserirBD" style="text;strokeColor=none;fillColor=none;align=left;verticalAlign=middle;spacingLeft=4;spacingRight=4;overflow=hidden;points=[[0,0.5],[1,0.5]];portConstraint=eastwest;rotatable=0;whiteSpace=wrap;html=1;" vertex="1" parent="4XpJfRSCnI_7P8yuamLv-388">
          <mxGeometry y="30" width="130" height="30" as="geometry" />
        </mxCell>
        <mxCell id="4XpJfRSCnI_7P8yuamLv-391" value="validadorCPF" style="text;strokeColor=none;fillColor=none;align=left;verticalAlign=middle;spacingLeft=4;spacingRight=4;overflow=hidden;points=[[0,0.5],[1,0.5]];portConstraint=eastwest;rotatable=0;whiteSpace=wrap;html=1;" vertex="1" parent="4XpJfRSCnI_7P8yuamLv-388">
          <mxGeometry y="60" width="130" height="30" as="geometry" />
        </mxCell>
        <mxCell id="4XpJfRSCnI_7P8yuamLv-392" value="validadorEndereco" style="text;strokeColor=none;fillColor=none;align=left;verticalAlign=middle;spacingLeft=4;spacingRight=4;overflow=hidden;points=[[0,0.5],[1,0.5]];portConstraint=eastwest;rotatable=0;whiteSpace=wrap;html=1;" vertex="1" parent="4XpJfRSCnI_7P8yuamLv-388">
          <mxGeometry y="90" width="130" height="30" as="geometry" />
        </mxCell>
        <mxCell id="4XpJfRSCnI_7P8yuamLv-393" value="Exame" style="swimlane;fontStyle=0;childLayout=stackLayout;horizontal=1;startSize=30;horizontalStack=0;resizeParent=1;resizeParentMax=0;resizeLast=0;collapsible=1;marginBottom=0;whiteSpace=wrap;html=1;" vertex="1" parent="1">
          <mxGeometry x="400" y="790" width="130" height="210" as="geometry">
            <mxRectangle x="340" y="190" width="80" height="30" as="alternateBounds" />
          </mxGeometry>
        </mxCell>
        <mxCell id="4XpJfRSCnI_7P8yuamLv-394" value="&lt;span style=&quot;white-space: pre;&quot;&gt;&#x9;&lt;/span&gt;atributes" style="text;strokeColor=none;fillColor=none;align=left;verticalAlign=middle;spacingLeft=4;spacingRight=4;overflow=hidden;points=[[0,0.5],[1,0.5]];portConstraint=eastwest;rotatable=0;whiteSpace=wrap;html=1;" vertex="1" parent="4XpJfRSCnI_7P8yuamLv-393">
          <mxGeometry y="30" width="130" height="30" as="geometry" />
        </mxCell>
        <mxCell id="4XpJfRSCnI_7P8yuamLv-395" value="id" style="text;strokeColor=none;fillColor=none;align=left;verticalAlign=middle;spacingLeft=4;spacingRight=4;overflow=hidden;points=[[0,0.5],[1,0.5]];portConstraint=eastwest;rotatable=0;whiteSpace=wrap;html=1;" vertex="1" parent="4XpJfRSCnI_7P8yuamLv-393">
          <mxGeometry y="60" width="130" height="30" as="geometry" />
        </mxCell>
        <mxCell id="4XpJfRSCnI_7P8yuamLv-396" value="nome" style="text;strokeColor=none;fillColor=none;align=left;verticalAlign=middle;spacingLeft=4;spacingRight=4;overflow=hidden;points=[[0,0.5],[1,0.5]];portConstraint=eastwest;rotatable=0;whiteSpace=wrap;html=1;" vertex="1" parent="4XpJfRSCnI_7P8yuamLv-393">
          <mxGeometry y="90" width="130" height="30" as="geometry" />
        </mxCell>
        <mxCell id="4XpJfRSCnI_7P8yuamLv-397" value="tempo" style="text;strokeColor=none;fillColor=none;align=left;verticalAlign=middle;spacingLeft=4;spacingRight=4;overflow=hidden;points=[[0,0.5],[1,0.5]];portConstraint=eastwest;rotatable=0;whiteSpace=wrap;html=1;" vertex="1" parent="4XpJfRSCnI_7P8yuamLv-393">
          <mxGeometry y="120" width="130" height="30" as="geometry" />
        </mxCell>
        <mxCell id="4XpJfRSCnI_7P8yuamLv-398" value="descricao" style="text;strokeColor=none;fillColor=none;align=left;verticalAlign=middle;spacingLeft=4;spacingRight=4;overflow=hidden;points=[[0,0.5],[1,0.5]];portConstraint=eastwest;rotatable=0;whiteSpace=wrap;html=1;" vertex="1" parent="4XpJfRSCnI_7P8yuamLv-393">
          <mxGeometry y="150" width="130" height="30" as="geometry" />
        </mxCell>
        <mxCell id="4XpJfRSCnI_7P8yuamLv-399" value="valor" style="text;strokeColor=none;fillColor=none;align=left;verticalAlign=middle;spacingLeft=4;spacingRight=4;overflow=hidden;points=[[0,0.5],[1,0.5]];portConstraint=eastwest;rotatable=0;whiteSpace=wrap;html=1;" vertex="1" parent="4XpJfRSCnI_7P8yuamLv-393">
          <mxGeometry y="180" width="130" height="30" as="geometry" />
        </mxCell>
        <mxCell id="4XpJfRSCnI_7P8yuamLv-406" value="" style="endArrow=none;html=1;rounded=0;" edge="1" parent="1">
          <mxGeometry width="50" height="50" relative="1" as="geometry">
            <mxPoint x="-3" y="1560" as="sourcePoint" />
            <mxPoint x="827" y="1560" as="targetPoint" />
          </mxGeometry>
        </mxCell>
        <mxCell id="4XpJfRSCnI_7P8yuamLv-474" value="" style="endArrow=none;html=1;rounded=0;" edge="1" parent="1">
          <mxGeometry width="50" height="50" relative="1" as="geometry">
            <mxPoint x="960" y="-2" as="sourcePoint" />
            <mxPoint x="1790" y="-2" as="targetPoint" />
          </mxGeometry>
        </mxCell>
        <mxCell id="4XpJfRSCnI_7P8yuamLv-475" value="03 - Processo de Compra Online" style="rounded=1;whiteSpace=wrap;html=1;" vertex="1" parent="1">
          <mxGeometry x="1213" y="20" width="240" height="40" as="geometry" />
        </mxCell>
        <mxCell id="4XpJfRSCnI_7P8yuamLv-476" value="Produto" style="swimlane;fontStyle=0;childLayout=stackLayout;horizontal=1;startSize=30;horizontalStack=0;resizeParent=1;resizeParentMax=0;resizeLast=0;collapsible=1;marginBottom=0;whiteSpace=wrap;html=1;" vertex="1" parent="1">
          <mxGeometry x="1030" y="480" width="130" height="240" as="geometry">
            <mxRectangle x="340" y="190" width="80" height="30" as="alternateBounds" />
          </mxGeometry>
        </mxCell>
        <mxCell id="4XpJfRSCnI_7P8yuamLv-477" value="&lt;span style=&quot;white-space: pre;&quot;&gt;&#x9;&lt;/span&gt;atributes" style="text;strokeColor=none;fillColor=none;align=left;verticalAlign=middle;spacingLeft=4;spacingRight=4;overflow=hidden;points=[[0,0.5],[1,0.5]];portConstraint=eastwest;rotatable=0;whiteSpace=wrap;html=1;" vertex="1" parent="4XpJfRSCnI_7P8yuamLv-476">
          <mxGeometry y="30" width="130" height="30" as="geometry" />
        </mxCell>
        <mxCell id="4XpJfRSCnI_7P8yuamLv-478" value="id" style="text;strokeColor=none;fillColor=none;align=left;verticalAlign=middle;spacingLeft=4;spacingRight=4;overflow=hidden;points=[[0,0.5],[1,0.5]];portConstraint=eastwest;rotatable=0;whiteSpace=wrap;html=1;" vertex="1" parent="4XpJfRSCnI_7P8yuamLv-476">
          <mxGeometry y="60" width="130" height="30" as="geometry" />
        </mxCell>
        <mxCell id="4XpJfRSCnI_7P8yuamLv-483" value="nome" style="text;strokeColor=none;fillColor=none;align=left;verticalAlign=middle;spacingLeft=4;spacingRight=4;overflow=hidden;points=[[0,0.5],[1,0.5]];portConstraint=eastwest;rotatable=0;whiteSpace=wrap;html=1;" vertex="1" parent="4XpJfRSCnI_7P8yuamLv-476">
          <mxGeometry y="90" width="130" height="30" as="geometry" />
        </mxCell>
        <mxCell id="4XpJfRSCnI_7P8yuamLv-622" value="sobrenome" style="text;strokeColor=none;fillColor=none;align=left;verticalAlign=middle;spacingLeft=4;spacingRight=4;overflow=hidden;points=[[0,0.5],[1,0.5]];portConstraint=eastwest;rotatable=0;whiteSpace=wrap;html=1;" vertex="1" parent="4XpJfRSCnI_7P8yuamLv-476">
          <mxGeometry y="120" width="130" height="30" as="geometry" />
        </mxCell>
        <mxCell id="4XpJfRSCnI_7P8yuamLv-621" value="descricao" style="text;strokeColor=none;fillColor=none;align=left;verticalAlign=middle;spacingLeft=4;spacingRight=4;overflow=hidden;points=[[0,0.5],[1,0.5]];portConstraint=eastwest;rotatable=0;whiteSpace=wrap;html=1;" vertex="1" parent="4XpJfRSCnI_7P8yuamLv-476">
          <mxGeometry y="150" width="130" height="30" as="geometry" />
        </mxCell>
        <mxCell id="4XpJfRSCnI_7P8yuamLv-485" value="valor" style="text;strokeColor=none;fillColor=none;align=left;verticalAlign=middle;spacingLeft=4;spacingRight=4;overflow=hidden;points=[[0,0.5],[1,0.5]];portConstraint=eastwest;rotatable=0;whiteSpace=wrap;html=1;" vertex="1" parent="4XpJfRSCnI_7P8yuamLv-476">
          <mxGeometry y="180" width="130" height="30" as="geometry" />
        </mxCell>
        <mxCell id="4XpJfRSCnI_7P8yuamLv-623" value="estoque" style="text;strokeColor=none;fillColor=none;align=left;verticalAlign=middle;spacingLeft=4;spacingRight=4;overflow=hidden;points=[[0,0.5],[1,0.5]];portConstraint=eastwest;rotatable=0;whiteSpace=wrap;html=1;" vertex="1" parent="4XpJfRSCnI_7P8yuamLv-476">
          <mxGeometry y="210" width="130" height="30" as="geometry" />
        </mxCell>
        <mxCell id="4XpJfRSCnI_7P8yuamLv-489" value="Cliente" style="swimlane;fontStyle=0;childLayout=stackLayout;horizontal=1;startSize=30;horizontalStack=0;resizeParent=1;resizeParentMax=0;resizeLast=0;collapsible=1;marginBottom=0;whiteSpace=wrap;html=1;" vertex="1" parent="1">
          <mxGeometry x="1470" y="480" width="130" height="390" as="geometry">
            <mxRectangle x="340" y="190" width="80" height="30" as="alternateBounds" />
          </mxGeometry>
        </mxCell>
        <mxCell id="4XpJfRSCnI_7P8yuamLv-490" value="&lt;span style=&quot;white-space: pre;&quot;&gt;&#x9;&lt;/span&gt;atributes" style="text;strokeColor=none;fillColor=none;align=left;verticalAlign=middle;spacingLeft=4;spacingRight=4;overflow=hidden;points=[[0,0.5],[1,0.5]];portConstraint=eastwest;rotatable=0;whiteSpace=wrap;html=1;" vertex="1" parent="4XpJfRSCnI_7P8yuamLv-489">
          <mxGeometry y="30" width="130" height="30" as="geometry" />
        </mxCell>
        <mxCell id="4XpJfRSCnI_7P8yuamLv-491" value="id" style="text;strokeColor=none;fillColor=none;align=left;verticalAlign=middle;spacingLeft=4;spacingRight=4;overflow=hidden;points=[[0,0.5],[1,0.5]];portConstraint=eastwest;rotatable=0;whiteSpace=wrap;html=1;" vertex="1" parent="4XpJfRSCnI_7P8yuamLv-489">
          <mxGeometry y="60" width="130" height="30" as="geometry" />
        </mxCell>
        <mxCell id="4XpJfRSCnI_7P8yuamLv-492" value="nome&lt;span style=&quot;white-space: pre;&quot;&gt;&#x9;&lt;/span&gt;" style="text;strokeColor=none;fillColor=none;align=left;verticalAlign=middle;spacingLeft=4;spacingRight=4;overflow=hidden;points=[[0,0.5],[1,0.5]];portConstraint=eastwest;rotatable=0;whiteSpace=wrap;html=1;" vertex="1" parent="4XpJfRSCnI_7P8yuamLv-489">
          <mxGeometry y="90" width="130" height="30" as="geometry" />
        </mxCell>
        <mxCell id="4XpJfRSCnI_7P8yuamLv-493" value="dataNasc" style="text;strokeColor=none;fillColor=none;align=left;verticalAlign=middle;spacingLeft=4;spacingRight=4;overflow=hidden;points=[[0,0.5],[1,0.5]];portConstraint=eastwest;rotatable=0;whiteSpace=wrap;html=1;" vertex="1" parent="4XpJfRSCnI_7P8yuamLv-489">
          <mxGeometry y="120" width="130" height="30" as="geometry" />
        </mxCell>
        <mxCell id="4XpJfRSCnI_7P8yuamLv-494" value="sobrenome" style="text;strokeColor=none;fillColor=none;align=left;verticalAlign=middle;spacingLeft=4;spacingRight=4;overflow=hidden;points=[[0,0.5],[1,0.5]];portConstraint=eastwest;rotatable=0;whiteSpace=wrap;html=1;" vertex="1" parent="4XpJfRSCnI_7P8yuamLv-489">
          <mxGeometry y="150" width="130" height="30" as="geometry" />
        </mxCell>
        <mxCell id="4XpJfRSCnI_7P8yuamLv-495" value="cpf" style="text;strokeColor=none;fillColor=none;align=left;verticalAlign=middle;spacingLeft=4;spacingRight=4;overflow=hidden;points=[[0,0.5],[1,0.5]];portConstraint=eastwest;rotatable=0;whiteSpace=wrap;html=1;" vertex="1" parent="4XpJfRSCnI_7P8yuamLv-489">
          <mxGeometry y="180" width="130" height="30" as="geometry" />
        </mxCell>
        <mxCell id="4XpJfRSCnI_7P8yuamLv-496" value="endereco" style="text;strokeColor=none;fillColor=none;align=left;verticalAlign=middle;spacingLeft=4;spacingRight=4;overflow=hidden;points=[[0,0.5],[1,0.5]];portConstraint=eastwest;rotatable=0;whiteSpace=wrap;html=1;" vertex="1" parent="4XpJfRSCnI_7P8yuamLv-489">
          <mxGeometry y="210" width="130" height="30" as="geometry" />
        </mxCell>
        <mxCell id="4XpJfRSCnI_7P8yuamLv-497" value="contato" style="text;strokeColor=none;fillColor=none;align=left;verticalAlign=middle;spacingLeft=4;spacingRight=4;overflow=hidden;points=[[0,0.5],[1,0.5]];portConstraint=eastwest;rotatable=0;whiteSpace=wrap;html=1;" vertex="1" parent="4XpJfRSCnI_7P8yuamLv-489">
          <mxGeometry y="240" width="130" height="30" as="geometry" />
        </mxCell>
        <mxCell id="4XpJfRSCnI_7P8yuamLv-498" value="" style="swimlane;fontStyle=0;childLayout=stackLayout;horizontal=1;startSize=0;horizontalStack=0;resizeParent=1;resizeParentMax=0;resizeLast=0;collapsible=1;marginBottom=0;whiteSpace=wrap;html=1;" vertex="1" parent="4XpJfRSCnI_7P8yuamLv-489">
          <mxGeometry y="270" width="130" height="120" as="geometry" />
        </mxCell>
        <mxCell id="4XpJfRSCnI_7P8yuamLv-499" value="&lt;span style=&quot;white-space: pre;&quot;&gt;&#x9;&lt;/span&gt;operations" style="text;strokeColor=none;fillColor=none;align=left;verticalAlign=middle;spacingLeft=4;spacingRight=4;overflow=hidden;points=[[0,0.5],[1,0.5]];portConstraint=eastwest;rotatable=0;whiteSpace=wrap;html=1;" vertex="1" parent="4XpJfRSCnI_7P8yuamLv-498">
          <mxGeometry width="130" height="30" as="geometry" />
        </mxCell>
        <mxCell id="4XpJfRSCnI_7P8yuamLv-500" value="inserirBD" style="text;strokeColor=none;fillColor=none;align=left;verticalAlign=middle;spacingLeft=4;spacingRight=4;overflow=hidden;points=[[0,0.5],[1,0.5]];portConstraint=eastwest;rotatable=0;whiteSpace=wrap;html=1;" vertex="1" parent="4XpJfRSCnI_7P8yuamLv-498">
          <mxGeometry y="30" width="130" height="30" as="geometry" />
        </mxCell>
        <mxCell id="4XpJfRSCnI_7P8yuamLv-501" value="validadorCPF" style="text;strokeColor=none;fillColor=none;align=left;verticalAlign=middle;spacingLeft=4;spacingRight=4;overflow=hidden;points=[[0,0.5],[1,0.5]];portConstraint=eastwest;rotatable=0;whiteSpace=wrap;html=1;" vertex="1" parent="4XpJfRSCnI_7P8yuamLv-498">
          <mxGeometry y="60" width="130" height="30" as="geometry" />
        </mxCell>
        <mxCell id="4XpJfRSCnI_7P8yuamLv-502" value="validadorEndereco" style="text;strokeColor=none;fillColor=none;align=left;verticalAlign=middle;spacingLeft=4;spacingRight=4;overflow=hidden;points=[[0,0.5],[1,0.5]];portConstraint=eastwest;rotatable=0;whiteSpace=wrap;html=1;" vertex="1" parent="4XpJfRSCnI_7P8yuamLv-498">
          <mxGeometry y="90" width="130" height="30" as="geometry" />
        </mxCell>
        <mxCell id="4XpJfRSCnI_7P8yuamLv-540" value="" style="endArrow=none;html=1;rounded=0;" edge="1" parent="1">
          <mxGeometry width="50" height="50" relative="1" as="geometry">
            <mxPoint x="960" y="920" as="sourcePoint" />
            <mxPoint x="1790" y="920" as="targetPoint" />
          </mxGeometry>
        </mxCell>
        <mxCell id="4XpJfRSCnI_7P8yuamLv-583" value="Pedido" style="swimlane;fontStyle=0;childLayout=stackLayout;horizontal=1;startSize=30;horizontalStack=0;resizeParent=1;resizeParentMax=0;resizeLast=0;collapsible=1;marginBottom=0;whiteSpace=wrap;html=1;" vertex="1" parent="1">
          <mxGeometry x="1268" y="480" width="130" height="330" as="geometry">
            <mxRectangle x="340" y="190" width="80" height="30" as="alternateBounds" />
          </mxGeometry>
        </mxCell>
        <mxCell id="4XpJfRSCnI_7P8yuamLv-584" value="&lt;span style=&quot;white-space: pre;&quot;&gt;&#x9;&lt;/span&gt;atributes" style="text;strokeColor=none;fillColor=none;align=left;verticalAlign=middle;spacingLeft=4;spacingRight=4;overflow=hidden;points=[[0,0.5],[1,0.5]];portConstraint=eastwest;rotatable=0;whiteSpace=wrap;html=1;" vertex="1" parent="4XpJfRSCnI_7P8yuamLv-583">
          <mxGeometry y="30" width="130" height="30" as="geometry" />
        </mxCell>
        <mxCell id="4XpJfRSCnI_7P8yuamLv-585" value="id" style="text;strokeColor=none;fillColor=none;align=left;verticalAlign=middle;spacingLeft=4;spacingRight=4;overflow=hidden;points=[[0,0.5],[1,0.5]];portConstraint=eastwest;rotatable=0;whiteSpace=wrap;html=1;" vertex="1" parent="4XpJfRSCnI_7P8yuamLv-583">
          <mxGeometry y="60" width="130" height="30" as="geometry" />
        </mxCell>
        <mxCell id="4XpJfRSCnI_7P8yuamLv-586" value="produtoID" style="text;strokeColor=none;fillColor=none;align=left;verticalAlign=middle;spacingLeft=4;spacingRight=4;overflow=hidden;points=[[0,0.5],[1,0.5]];portConstraint=eastwest;rotatable=0;whiteSpace=wrap;html=1;" vertex="1" parent="4XpJfRSCnI_7P8yuamLv-583">
          <mxGeometry y="90" width="130" height="30" as="geometry" />
        </mxCell>
        <mxCell id="4XpJfRSCnI_7P8yuamLv-587" value="qntde" style="text;strokeColor=none;fillColor=none;align=left;verticalAlign=middle;spacingLeft=4;spacingRight=4;overflow=hidden;points=[[0,0.5],[1,0.5]];portConstraint=eastwest;rotatable=0;whiteSpace=wrap;html=1;" vertex="1" parent="4XpJfRSCnI_7P8yuamLv-583">
          <mxGeometry y="120" width="130" height="30" as="geometry" />
        </mxCell>
        <mxCell id="4XpJfRSCnI_7P8yuamLv-588" value="valor" style="text;strokeColor=none;fillColor=none;align=left;verticalAlign=middle;spacingLeft=4;spacingRight=4;overflow=hidden;points=[[0,0.5],[1,0.5]];portConstraint=eastwest;rotatable=0;whiteSpace=wrap;html=1;" vertex="1" parent="4XpJfRSCnI_7P8yuamLv-583">
          <mxGeometry y="150" width="130" height="30" as="geometry" />
        </mxCell>
        <mxCell id="4XpJfRSCnI_7P8yuamLv-589" value="descricao" style="text;strokeColor=none;fillColor=none;align=left;verticalAlign=middle;spacingLeft=4;spacingRight=4;overflow=hidden;points=[[0,0.5],[1,0.5]];portConstraint=eastwest;rotatable=0;whiteSpace=wrap;html=1;" vertex="1" parent="4XpJfRSCnI_7P8yuamLv-583">
          <mxGeometry y="180" width="130" height="30" as="geometry" />
        </mxCell>
        <mxCell id="4XpJfRSCnI_7P8yuamLv-590" value="valor" style="text;strokeColor=none;fillColor=none;align=left;verticalAlign=middle;spacingLeft=4;spacingRight=4;overflow=hidden;points=[[0,0.5],[1,0.5]];portConstraint=eastwest;rotatable=0;whiteSpace=wrap;html=1;" vertex="1" parent="4XpJfRSCnI_7P8yuamLv-583">
          <mxGeometry y="210" width="130" height="30" as="geometry" />
        </mxCell>
        <mxCell id="4XpJfRSCnI_7P8yuamLv-591" value="" style="swimlane;fontStyle=0;childLayout=stackLayout;horizontal=1;startSize=0;horizontalStack=0;resizeParent=1;resizeParentMax=0;resizeLast=0;collapsible=1;marginBottom=0;whiteSpace=wrap;html=1;" vertex="1" parent="4XpJfRSCnI_7P8yuamLv-583">
          <mxGeometry y="240" width="130" height="90" as="geometry" />
        </mxCell>
        <mxCell id="4XpJfRSCnI_7P8yuamLv-592" value="&lt;span style=&quot;white-space: pre;&quot;&gt;&#x9;&lt;/span&gt;operations" style="text;strokeColor=none;fillColor=none;align=left;verticalAlign=middle;spacingLeft=4;spacingRight=4;overflow=hidden;points=[[0,0.5],[1,0.5]];portConstraint=eastwest;rotatable=0;whiteSpace=wrap;html=1;" vertex="1" parent="4XpJfRSCnI_7P8yuamLv-591">
          <mxGeometry width="130" height="30" as="geometry" />
        </mxCell>
        <mxCell id="4XpJfRSCnI_7P8yuamLv-593" value="somaPrdutos" style="text;strokeColor=none;fillColor=none;align=left;verticalAlign=middle;spacingLeft=4;spacingRight=4;overflow=hidden;points=[[0,0.5],[1,0.5]];portConstraint=eastwest;rotatable=0;whiteSpace=wrap;html=1;" vertex="1" parent="4XpJfRSCnI_7P8yuamLv-591">
          <mxGeometry y="30" width="130" height="30" as="geometry" />
        </mxCell>
        <mxCell id="4XpJfRSCnI_7P8yuamLv-620" value="verificaEstoque" style="text;strokeColor=none;fillColor=none;align=left;verticalAlign=middle;spacingLeft=4;spacingRight=4;overflow=hidden;points=[[0,0.5],[1,0.5]];portConstraint=eastwest;rotatable=0;whiteSpace=wrap;html=1;" vertex="1" parent="4XpJfRSCnI_7P8yuamLv-591">
          <mxGeometry y="60" width="130" height="30" as="geometry" />
        </mxCell>
        <mxCell id="4XpJfRSCnI_7P8yuamLv-594" value="Entrega" style="swimlane;fontStyle=0;childLayout=stackLayout;horizontal=1;startSize=30;horizontalStack=0;resizeParent=1;resizeParentMax=0;resizeLast=0;collapsible=1;marginBottom=0;whiteSpace=wrap;html=1;" vertex="1" parent="1">
          <mxGeometry x="1111" y="120" width="130" height="270" as="geometry">
            <mxRectangle x="340" y="190" width="80" height="30" as="alternateBounds" />
          </mxGeometry>
        </mxCell>
        <mxCell id="4XpJfRSCnI_7P8yuamLv-595" value="&lt;span style=&quot;white-space: pre;&quot;&gt;&#x9;&lt;/span&gt;atributes" style="text;strokeColor=none;fillColor=none;align=left;verticalAlign=middle;spacingLeft=4;spacingRight=4;overflow=hidden;points=[[0,0.5],[1,0.5]];portConstraint=eastwest;rotatable=0;whiteSpace=wrap;html=1;" vertex="1" parent="4XpJfRSCnI_7P8yuamLv-594">
          <mxGeometry y="30" width="130" height="30" as="geometry" />
        </mxCell>
        <mxCell id="4XpJfRSCnI_7P8yuamLv-596" value="id" style="text;strokeColor=none;fillColor=none;align=left;verticalAlign=middle;spacingLeft=4;spacingRight=4;overflow=hidden;points=[[0,0.5],[1,0.5]];portConstraint=eastwest;rotatable=0;whiteSpace=wrap;html=1;" vertex="1" parent="4XpJfRSCnI_7P8yuamLv-594">
          <mxGeometry y="60" width="130" height="30" as="geometry" />
        </mxCell>
        <mxCell id="4XpJfRSCnI_7P8yuamLv-597" value="pedidoID" style="text;strokeColor=none;fillColor=none;align=left;verticalAlign=middle;spacingLeft=4;spacingRight=4;overflow=hidden;points=[[0,0.5],[1,0.5]];portConstraint=eastwest;rotatable=0;whiteSpace=wrap;html=1;" vertex="1" parent="4XpJfRSCnI_7P8yuamLv-594">
          <mxGeometry y="90" width="130" height="30" as="geometry" />
        </mxCell>
        <mxCell id="4XpJfRSCnI_7P8yuamLv-616" value="clienteID" style="text;strokeColor=none;fillColor=none;align=left;verticalAlign=middle;spacingLeft=4;spacingRight=4;overflow=hidden;points=[[0,0.5],[1,0.5]];portConstraint=eastwest;rotatable=0;whiteSpace=wrap;html=1;" vertex="1" parent="4XpJfRSCnI_7P8yuamLv-594">
          <mxGeometry y="120" width="130" height="30" as="geometry" />
        </mxCell>
        <mxCell id="4XpJfRSCnI_7P8yuamLv-598" value="valor" style="text;strokeColor=none;fillColor=none;align=left;verticalAlign=middle;spacingLeft=4;spacingRight=4;overflow=hidden;points=[[0,0.5],[1,0.5]];portConstraint=eastwest;rotatable=0;whiteSpace=wrap;html=1;" vertex="1" parent="4XpJfRSCnI_7P8yuamLv-594">
          <mxGeometry y="150" width="130" height="30" as="geometry" />
        </mxCell>
        <mxCell id="4XpJfRSCnI_7P8yuamLv-600" value="descricao" style="text;strokeColor=none;fillColor=none;align=left;verticalAlign=middle;spacingLeft=4;spacingRight=4;overflow=hidden;points=[[0,0.5],[1,0.5]];portConstraint=eastwest;rotatable=0;whiteSpace=wrap;html=1;" vertex="1" parent="4XpJfRSCnI_7P8yuamLv-594">
          <mxGeometry y="180" width="130" height="30" as="geometry" />
        </mxCell>
        <mxCell id="4XpJfRSCnI_7P8yuamLv-602" value="" style="swimlane;fontStyle=0;childLayout=stackLayout;horizontal=1;startSize=0;horizontalStack=0;resizeParent=1;resizeParentMax=0;resizeLast=0;collapsible=1;marginBottom=0;whiteSpace=wrap;html=1;" vertex="1" parent="4XpJfRSCnI_7P8yuamLv-594">
          <mxGeometry y="210" width="130" height="60" as="geometry" />
        </mxCell>
        <mxCell id="4XpJfRSCnI_7P8yuamLv-603" value="&lt;span style=&quot;white-space: pre;&quot;&gt;&#x9;&lt;/span&gt;operations" style="text;strokeColor=none;fillColor=none;align=left;verticalAlign=middle;spacingLeft=4;spacingRight=4;overflow=hidden;points=[[0,0.5],[1,0.5]];portConstraint=eastwest;rotatable=0;whiteSpace=wrap;html=1;" vertex="1" parent="4XpJfRSCnI_7P8yuamLv-602">
          <mxGeometry width="130" height="30" as="geometry" />
        </mxCell>
        <mxCell id="4XpJfRSCnI_7P8yuamLv-604" value="APIcorreio" style="text;strokeColor=none;fillColor=none;align=left;verticalAlign=middle;spacingLeft=4;spacingRight=4;overflow=hidden;points=[[0,0.5],[1,0.5]];portConstraint=eastwest;rotatable=0;whiteSpace=wrap;html=1;" vertex="1" parent="4XpJfRSCnI_7P8yuamLv-602">
          <mxGeometry y="30" width="130" height="30" as="geometry" />
        </mxCell>
        <mxCell id="4XpJfRSCnI_7P8yuamLv-605" value="Pagamento" style="swimlane;fontStyle=0;childLayout=stackLayout;horizontal=1;startSize=30;horizontalStack=0;resizeParent=1;resizeParentMax=0;resizeLast=0;collapsible=1;marginBottom=0;whiteSpace=wrap;html=1;" vertex="1" parent="1">
          <mxGeometry x="1398" y="120" width="130" height="300" as="geometry">
            <mxRectangle x="340" y="190" width="80" height="30" as="alternateBounds" />
          </mxGeometry>
        </mxCell>
        <mxCell id="4XpJfRSCnI_7P8yuamLv-606" value="&lt;span style=&quot;white-space: pre;&quot;&gt;&#x9;&lt;/span&gt;atributes" style="text;strokeColor=none;fillColor=none;align=left;verticalAlign=middle;spacingLeft=4;spacingRight=4;overflow=hidden;points=[[0,0.5],[1,0.5]];portConstraint=eastwest;rotatable=0;whiteSpace=wrap;html=1;" vertex="1" parent="4XpJfRSCnI_7P8yuamLv-605">
          <mxGeometry y="30" width="130" height="30" as="geometry" />
        </mxCell>
        <mxCell id="4XpJfRSCnI_7P8yuamLv-607" value="id" style="text;strokeColor=none;fillColor=none;align=left;verticalAlign=middle;spacingLeft=4;spacingRight=4;overflow=hidden;points=[[0,0.5],[1,0.5]];portConstraint=eastwest;rotatable=0;whiteSpace=wrap;html=1;" vertex="1" parent="4XpJfRSCnI_7P8yuamLv-605">
          <mxGeometry y="60" width="130" height="30" as="geometry" />
        </mxCell>
        <mxCell id="4XpJfRSCnI_7P8yuamLv-608" value="pedidoID" style="text;strokeColor=none;fillColor=none;align=left;verticalAlign=middle;spacingLeft=4;spacingRight=4;overflow=hidden;points=[[0,0.5],[1,0.5]];portConstraint=eastwest;rotatable=0;whiteSpace=wrap;html=1;" vertex="1" parent="4XpJfRSCnI_7P8yuamLv-605">
          <mxGeometry y="90" width="130" height="30" as="geometry" />
        </mxCell>
        <mxCell id="4XpJfRSCnI_7P8yuamLv-618" value="clienteID" style="text;strokeColor=none;fillColor=none;align=left;verticalAlign=middle;spacingLeft=4;spacingRight=4;overflow=hidden;points=[[0,0.5],[1,0.5]];portConstraint=eastwest;rotatable=0;whiteSpace=wrap;html=1;" vertex="1" parent="4XpJfRSCnI_7P8yuamLv-605">
          <mxGeometry y="120" width="130" height="30" as="geometry" />
        </mxCell>
        <mxCell id="4XpJfRSCnI_7P8yuamLv-610" value="valor" style="text;strokeColor=none;fillColor=none;align=left;verticalAlign=middle;spacingLeft=4;spacingRight=4;overflow=hidden;points=[[0,0.5],[1,0.5]];portConstraint=eastwest;rotatable=0;whiteSpace=wrap;html=1;" vertex="1" parent="4XpJfRSCnI_7P8yuamLv-605">
          <mxGeometry y="150" width="130" height="30" as="geometry" />
        </mxCell>
        <mxCell id="4XpJfRSCnI_7P8yuamLv-611" value="descricao" style="text;strokeColor=none;fillColor=none;align=left;verticalAlign=middle;spacingLeft=4;spacingRight=4;overflow=hidden;points=[[0,0.5],[1,0.5]];portConstraint=eastwest;rotatable=0;whiteSpace=wrap;html=1;" vertex="1" parent="4XpJfRSCnI_7P8yuamLv-605">
          <mxGeometry y="180" width="130" height="30" as="geometry" />
        </mxCell>
        <mxCell id="4XpJfRSCnI_7P8yuamLv-613" value="" style="swimlane;fontStyle=0;childLayout=stackLayout;horizontal=1;startSize=0;horizontalStack=0;resizeParent=1;resizeParentMax=0;resizeLast=0;collapsible=1;marginBottom=0;whiteSpace=wrap;html=1;" vertex="1" parent="4XpJfRSCnI_7P8yuamLv-605">
          <mxGeometry y="210" width="130" height="90" as="geometry" />
        </mxCell>
        <mxCell id="4XpJfRSCnI_7P8yuamLv-614" value="&lt;span style=&quot;white-space: pre;&quot;&gt;&#x9;&lt;/span&gt;operations" style="text;strokeColor=none;fillColor=none;align=left;verticalAlign=middle;spacingLeft=4;spacingRight=4;overflow=hidden;points=[[0,0.5],[1,0.5]];portConstraint=eastwest;rotatable=0;whiteSpace=wrap;html=1;" vertex="1" parent="4XpJfRSCnI_7P8yuamLv-613">
          <mxGeometry width="130" height="30" as="geometry" />
        </mxCell>
        <mxCell id="4XpJfRSCnI_7P8yuamLv-615" value="metodoPagamento" style="text;strokeColor=none;fillColor=none;align=left;verticalAlign=middle;spacingLeft=4;spacingRight=4;overflow=hidden;points=[[0,0.5],[1,0.5]];portConstraint=eastwest;rotatable=0;whiteSpace=wrap;html=1;" vertex="1" parent="4XpJfRSCnI_7P8yuamLv-613">
          <mxGeometry y="30" width="130" height="30" as="geometry" />
        </mxCell>
        <mxCell id="4XpJfRSCnI_7P8yuamLv-619" value="validarPagamento" style="text;strokeColor=none;fillColor=none;align=left;verticalAlign=middle;spacingLeft=4;spacingRight=4;overflow=hidden;points=[[0,0.5],[1,0.5]];portConstraint=eastwest;rotatable=0;whiteSpace=wrap;html=1;" vertex="1" parent="4XpJfRSCnI_7P8yuamLv-613">
          <mxGeometry y="60" width="130" height="30" as="geometry" />
        </mxCell>
        <mxCell id="4XpJfRSCnI_7P8yuamLv-628" value="" style="swimlane;fontStyle=0;childLayout=stackLayout;horizontal=1;startSize=0;horizontalStack=0;resizeParent=1;resizeParentMax=0;resizeLast=0;collapsible=1;marginBottom=0;whiteSpace=wrap;html=1;" vertex="1" parent="1">
          <mxGeometry x="1030" y="720" width="130" height="60" as="geometry" />
        </mxCell>
        <mxCell id="4XpJfRSCnI_7P8yuamLv-629" value="&lt;span style=&quot;white-space: pre;&quot;&gt;&#x9;&lt;/span&gt;operations" style="text;strokeColor=none;fillColor=none;align=left;verticalAlign=middle;spacingLeft=4;spacingRight=4;overflow=hidden;points=[[0,0.5],[1,0.5]];portConstraint=eastwest;rotatable=0;whiteSpace=wrap;html=1;" vertex="1" parent="4XpJfRSCnI_7P8yuamLv-628">
          <mxGeometry width="130" height="30" as="geometry" />
        </mxCell>
        <mxCell id="4XpJfRSCnI_7P8yuamLv-630" value="inserirBD" style="text;strokeColor=none;fillColor=none;align=left;verticalAlign=middle;spacingLeft=4;spacingRight=4;overflow=hidden;points=[[0,0.5],[1,0.5]];portConstraint=eastwest;rotatable=0;whiteSpace=wrap;html=1;" vertex="1" parent="4XpJfRSCnI_7P8yuamLv-628">
          <mxGeometry y="30" width="130" height="30" as="geometry" />
        </mxCell>
      </root>
    </mxGraphModel>
  </diagram>
</mxfile>
